<mxfile host="app.diagrams.net" modified="2021-11-02T11:30:29.270Z" agent="5.0 (Windows NT 10.0; WOW64) AppleWebKit/537.36 (KHTML, like Gecko) Chrome/80.0.3987.132 YaBrowser/20.3.1.253 Yowser/2.5 Safari/537.36" etag="dMykNmn9482vCPHyB2G2" version="15.6.5" type="github">
  <diagram id="cyFGgkjcv_PTRSqLKhpW" name="Page-1">
    <mxGraphModel dx="328" dy="191" grid="1" gridSize="10" guides="1" tooltips="1" connect="1" arrows="1" fold="1" page="1" pageScale="1" pageWidth="827" pageHeight="1169" math="0" shadow="0">
      <root>
        <mxCell id="0" />
        <mxCell id="1" parent="0" />
        <mxCell id="HezW63i-MjSSbvqSVKH8-16" value="" style="shape=process;whiteSpace=wrap;html=1;backgroundOutline=1;fontColor=default;strokeColor=default;fillColor=default;" vertex="1" parent="1">
          <mxGeometry x="354" y="40" width="120" height="60" as="geometry" />
        </mxCell>
        <mxCell id="HezW63i-MjSSbvqSVKH8-17" value="" style="endArrow=none;html=1;rounded=0;fontColor=default;entryX=1;entryY=0.5;entryDx=0;entryDy=0;strokeColor=default;labelBackgroundColor=default;exitX=0.098;exitY=0.997;exitDx=0;exitDy=0;exitPerimeter=0;" edge="1" parent="1" source="HezW63i-MjSSbvqSVKH8-23" target="HezW63i-MjSSbvqSVKH8-16">
          <mxGeometry width="50" height="50" relative="1" as="geometry">
            <mxPoint x="460" y="70" as="sourcePoint" />
            <mxPoint x="440" y="120" as="targetPoint" />
          </mxGeometry>
        </mxCell>
        <mxCell id="HezW63i-MjSSbvqSVKH8-19" value="" style="endArrow=none;html=1;rounded=0;fontColor=default;entryX=0.8;entryY=0.994;entryDx=0;entryDy=0;strokeColor=default;labelBackgroundColor=default;entryPerimeter=0;" edge="1" parent="1" target="HezW63i-MjSSbvqSVKH8-20">
          <mxGeometry width="50" height="50" relative="1" as="geometry">
            <mxPoint x="354" y="69.86" as="sourcePoint" />
            <mxPoint x="368" y="69.86" as="targetPoint" />
            <Array as="points">
              <mxPoint x="364" y="69.86" />
            </Array>
          </mxGeometry>
        </mxCell>
        <mxCell id="HezW63i-MjSSbvqSVKH8-20" value="S" style="text;html=1;align=center;verticalAlign=middle;resizable=0;points=[];autosize=1;strokeColor=none;fillColor=none;fontColor=default;" vertex="1" parent="1">
          <mxGeometry x="350" y="50" width="20" height="20" as="geometry" />
        </mxCell>
        <mxCell id="HezW63i-MjSSbvqSVKH8-21" value="R" style="text;html=1;align=center;verticalAlign=middle;resizable=0;points=[];autosize=1;strokeColor=none;fillColor=none;fontColor=default;" vertex="1" parent="1">
          <mxGeometry x="350" y="80" width="20" height="20" as="geometry" />
        </mxCell>
        <mxCell id="HezW63i-MjSSbvqSVKH8-22" value="S" style="text;html=1;align=center;verticalAlign=middle;resizable=0;points=[];autosize=1;strokeColor=none;fillColor=none;fontColor=default;" vertex="1" parent="1">
          <mxGeometry x="460" y="80" width="20" height="20" as="geometry" />
        </mxCell>
        <mxCell id="HezW63i-MjSSbvqSVKH8-23" value="R" style="text;html=1;align=center;verticalAlign=middle;resizable=0;points=[];autosize=1;strokeColor=none;fillColor=none;fontColor=default;" vertex="1" parent="1">
          <mxGeometry x="460" y="50" width="20" height="20" as="geometry" />
        </mxCell>
        <mxCell id="HezW63i-MjSSbvqSVKH8-53" value="" style="shape=process;whiteSpace=wrap;html=1;backgroundOutline=1;fillColor=default;strokeColor=default;fontColor=default;" vertex="1" parent="1">
          <mxGeometry x="244" y="190" width="120" height="60" as="geometry" />
        </mxCell>
        <mxCell id="HezW63i-MjSSbvqSVKH8-54" value="" style="endArrow=none;html=1;rounded=0;fontColor=default;entryX=1;entryY=0.5;entryDx=0;entryDy=0;labelBackgroundColor=default;exitX=0.098;exitY=0.997;exitDx=0;exitDy=0;exitPerimeter=0;fillColor=default;strokeColor=default;" edge="1" parent="1" source="HezW63i-MjSSbvqSVKH8-59" target="HezW63i-MjSSbvqSVKH8-53">
          <mxGeometry width="50" height="50" relative="1" as="geometry">
            <mxPoint x="350" y="220" as="sourcePoint" />
            <mxPoint x="330" y="270" as="targetPoint" />
          </mxGeometry>
        </mxCell>
        <mxCell id="HezW63i-MjSSbvqSVKH8-55" value="" style="endArrow=none;html=1;rounded=0;fontColor=default;entryX=0.8;entryY=0.994;entryDx=0;entryDy=0;labelBackgroundColor=default;entryPerimeter=0;fillColor=default;strokeColor=default;" edge="1" parent="1" target="HezW63i-MjSSbvqSVKH8-56">
          <mxGeometry width="50" height="50" relative="1" as="geometry">
            <mxPoint x="244" y="219.86" as="sourcePoint" />
            <mxPoint x="258" y="219.86" as="targetPoint" />
            <Array as="points">
              <mxPoint x="254" y="219.86" />
            </Array>
          </mxGeometry>
        </mxCell>
        <mxCell id="HezW63i-MjSSbvqSVKH8-56" value="S" style="text;html=1;align=center;verticalAlign=middle;resizable=0;points=[];autosize=1;fillColor=default;strokeColor=default;fontColor=default;" vertex="1" parent="1">
          <mxGeometry x="240" y="200" width="20" height="20" as="geometry" />
        </mxCell>
        <mxCell id="HezW63i-MjSSbvqSVKH8-57" value="R" style="text;html=1;align=center;verticalAlign=middle;resizable=0;points=[];autosize=1;fillColor=default;strokeColor=default;fontColor=default;" vertex="1" parent="1">
          <mxGeometry x="240" y="230" width="20" height="20" as="geometry" />
        </mxCell>
        <mxCell id="HezW63i-MjSSbvqSVKH8-58" value="S" style="text;html=1;align=center;verticalAlign=middle;resizable=0;points=[];autosize=1;fillColor=default;strokeColor=default;fontColor=default;" vertex="1" parent="1">
          <mxGeometry x="350" y="230" width="20" height="20" as="geometry" />
        </mxCell>
        <mxCell id="HezW63i-MjSSbvqSVKH8-59" value="R" style="text;html=1;align=center;verticalAlign=middle;resizable=0;points=[];autosize=1;fillColor=default;strokeColor=default;fontColor=default;" vertex="1" parent="1">
          <mxGeometry x="350" y="200" width="20" height="20" as="geometry" />
        </mxCell>
        <mxCell id="HezW63i-MjSSbvqSVKH8-60" value="" style="shape=process;whiteSpace=wrap;html=1;backgroundOutline=1;fillColor=default;strokeColor=default;fontColor=default;" vertex="1" parent="1">
          <mxGeometry x="434" y="190" width="120" height="60" as="geometry" />
        </mxCell>
        <mxCell id="HezW63i-MjSSbvqSVKH8-61" value="" style="endArrow=none;html=1;rounded=0;fontColor=default;entryX=1;entryY=0.5;entryDx=0;entryDy=0;labelBackgroundColor=default;exitX=0.098;exitY=0.997;exitDx=0;exitDy=0;exitPerimeter=0;fillColor=default;strokeColor=default;" edge="1" parent="1" source="HezW63i-MjSSbvqSVKH8-66" target="HezW63i-MjSSbvqSVKH8-60">
          <mxGeometry width="50" height="50" relative="1" as="geometry">
            <mxPoint x="540" y="220" as="sourcePoint" />
            <mxPoint x="520" y="270" as="targetPoint" />
          </mxGeometry>
        </mxCell>
        <mxCell id="HezW63i-MjSSbvqSVKH8-62" value="" style="endArrow=none;html=1;rounded=0;fontColor=default;entryX=0.8;entryY=0.994;entryDx=0;entryDy=0;labelBackgroundColor=default;entryPerimeter=0;fillColor=default;strokeColor=default;" edge="1" parent="1" target="HezW63i-MjSSbvqSVKH8-63">
          <mxGeometry width="50" height="50" relative="1" as="geometry">
            <mxPoint x="434" y="219.86" as="sourcePoint" />
            <mxPoint x="448" y="219.86" as="targetPoint" />
            <Array as="points">
              <mxPoint x="444" y="219.86" />
            </Array>
          </mxGeometry>
        </mxCell>
        <mxCell id="HezW63i-MjSSbvqSVKH8-63" value="S" style="text;html=1;align=center;verticalAlign=middle;resizable=0;points=[];autosize=1;fillColor=default;strokeColor=default;fontColor=default;" vertex="1" parent="1">
          <mxGeometry x="430" y="200" width="20" height="20" as="geometry" />
        </mxCell>
        <mxCell id="HezW63i-MjSSbvqSVKH8-64" value="R" style="text;html=1;align=center;verticalAlign=middle;resizable=0;points=[];autosize=1;fillColor=default;strokeColor=default;fontColor=default;" vertex="1" parent="1">
          <mxGeometry x="430" y="230" width="20" height="20" as="geometry" />
        </mxCell>
        <mxCell id="HezW63i-MjSSbvqSVKH8-65" value="S" style="text;html=1;align=center;verticalAlign=middle;resizable=0;points=[];autosize=1;fillColor=default;strokeColor=default;fontColor=default;" vertex="1" parent="1">
          <mxGeometry x="540" y="230" width="20" height="20" as="geometry" />
        </mxCell>
        <mxCell id="HezW63i-MjSSbvqSVKH8-66" value="R" style="text;html=1;align=center;verticalAlign=middle;resizable=0;points=[];autosize=1;fillColor=default;strokeColor=default;fontColor=default;" vertex="1" parent="1">
          <mxGeometry x="540" y="200" width="20" height="20" as="geometry" />
        </mxCell>
      </root>
    </mxGraphModel>
  </diagram>
</mxfile>
